<svg xmlns="http://www.w3.org/2000/svg" xmlns:xlink="http://www.w3.org/1999/xlink" viewBox="0 0 1910.16 940.73"><defs><clipPath id="a"><rect x="593.86" y="31.67" width="724.6" height="725.22" fill="none"/></clipPath><clipPath id="b"><path d="M994.06,257.83c-7.47-4.6-15.29-9.25-23.37-13.95,3.27-1.85,6.5-3.67,9.86-5.55,18.31-10.22,39.06-21.8,58.88-34q3-1.83,5.94-3.7c7.1,4.66,14.12,9.41,20.94,14.36,51.37,37.33,93.18,84,102.24,151.49h-71.34c-11.08-43-48.4-74.9-103.15-108.64M892.89,109.88c8,5.38,16.27,10.76,25.2,16.21,7.51,4.58,15.37,9.2,23.5,13.9-2,1.13-4,2.26-6.07,3.41-20.6,11.5-41.89,23.38-62.67,36.31-2,1.26-4,2.5-5.93,3.75-7.12-4.62-14.16-9.32-21-14.22-8.22-5.89-16.11-12.08-23.75-18.49L678.44,233.8v321L821.3,637.32c18.1-15.28,38-29,58.69-41.74,19.72-12.13,40-23.39,59.73-34.33q8.4-4.65,16.44-9.18c42.09-23.7,77-45.26,101.94-68.76H908.51l44.85-77.89h216.78a187,187,0,0,1-20.86,77.89c-25,48-69.2,82.76-116.94,112.27C1012,608.13,991.1,619.74,970.75,631c-5,2.75-9.81,5.46-14.59,8.14-24,13.47-45.42,26.21-64.22,39l64.22,37.11,64.24-37.12c-8.18-5.57-16.77-11.13-26-16.75-7.53-4.58-15.42-9.2-23.59-13.9l6.83-3.81c20.42-11.32,41.54-23,62.18-35.78,2-1.22,4-2.49,6-3.76,7.09,4.6,14.1,9.28,20.91,14.16,8.43,6.05,16.52,12.42,24.32,19l142.86-82.54v-321l-143.74-83.05c-18,15.05-37.72,28.66-58.17,41.25-19.28,11.88-39.08,22.94-58.35,33.7q-8.93,5-17.47,9.83C868.23,285.45,811.65,326,811.65,394.29c0,57.7,40.59,95.31,106.37,135.52,7.51,4.6,15.39,9.23,23.53,13.93-2.9,1.62-5.74,3.22-8.7,4.86-19.72,10.93-40.11,22.24-60.3,34.65-2,1.23-4,2.48-6,3.73-7.13-4.64-14.17-9.37-21-14.32C787.63,530.8,741.89,477,741.89,394.29c0-98.75,65.12-156.65,138.46-202.29,20.47-12.74,41.57-24.52,62.08-36,4.67-2.6,9.23-5.17,13.73-7.71,23.56-13.31,44.68-25.9,63.26-38.45L956.16,73.32Z" fill="none"/></clipPath><linearGradient id="c" x1="-5.11" y1="1016.45" x2="-3.66" y2="1016.45" gradientTransform="matrix(0, 496.58, 496.58, 0, -503798.46, 2575.06)" gradientUnits="userSpaceOnUse"><stop offset="0" stop-color="#7f00f7"/><stop offset="0" stop-color="#7f00f7"/><stop offset="0.54" stop-color="#41007f"/><stop offset="1" stop-color="#41007f"/></linearGradient><clipPath id="d"><path d="M657.56,566.83V221.74L956.16,49.19l298.61,172.55V566.83L956.16,739.38ZM956.16,31.67,642.4,213V575.59l313.76,181.3,313.77-181.3V213Z" fill="none"/></clipPath><linearGradient id="e" x1="-5.11" y1="1016.45" x2="-3.66" y2="1016.45" xlink:href="#c"/></defs><path d="M708.22,936.73a58.57,58.57,0,0,1-20.74-3.65,45.81,45.81,0,0,1-16.94-11,51.8,51.8,0,0,1-11.34-18.51q-4.14-11.12-4.14-25.9a73.85,73.85,0,0,1,4.22-25.9,56.49,56.49,0,0,1,11.42-19,49.18,49.18,0,0,1,16.78-11.84,50.48,50.48,0,0,1,20.09-4.09q11.67,0,20.18,4.54a52.18,52.18,0,0,1,14.18,10.76l-14.59,19.58a40.41,40.41,0,0,0-8.18-6.14,23.47,23.47,0,0,0-20.5-.09,24.16,24.16,0,0,0-7.94,6.59,30.82,30.82,0,0,0-5.27,10.5,49.15,49.15,0,0,0-1.86,14.06q0,16.38,6.64,25.1t20.91,8.72a18.49,18.49,0,0,0,4.45-.53,10.3,10.3,0,0,0,3.65-1.6v-16H703.68V867.31h40.19v55.18a47.56,47.56,0,0,1-15.07,10.06A50.21,50.21,0,0,1,708.22,936.73Z" fill="#fff"/><path d="M762,934.59v-89h22.69l1.94,15.31h.65q4.55-9.07,10.78-13.26t12.24-4.18a33,33,0,0,1,6,.44,15.79,15.79,0,0,1,4.05,1.34l-4.53,26.34c-1.52-.36-3-.68-4.3-1a23,23,0,0,0-4.78-.44,16.24,16.24,0,0,0-9.16,3.29q-4.77,3.3-7.69,11.66v49.48Z" fill="#fff"/><path d="M843.7,834.56a15.32,15.32,0,0,1-11.18-4.28,16.09,16.09,0,0,1,0-22.07,16.77,16.77,0,0,1,22.36,0,16.09,16.09,0,0,1,0,22.07A15.33,15.33,0,0,1,843.7,834.56Zm-13.94,100v-89h27.88v89Z" fill="#fff"/><path d="M905.93,936.73a28.91,28.91,0,0,1-13.7-3.21,29.53,29.53,0,0,1-10.37-9.25,45.91,45.91,0,0,1-6.64-14.69,74.1,74.1,0,0,1-2.35-19.49,63.23,63.23,0,0,1,2.83-19.58,48,48,0,0,1,7.46-14.68,33.34,33.34,0,0,1,10.61-9.17,25.5,25.5,0,0,1,12.16-3.2,21.78,21.78,0,0,1,10.86,2.4,32.94,32.94,0,0,1,7.94,6.5l-1-12.82V810.7h27.88V934.59H928.94L927,926.4h-.65a34.85,34.85,0,0,1-9.65,7.48A23,23,0,0,1,905.93,936.73Zm7.45-24.92a11.59,11.59,0,0,0,5.67-1.34,13.59,13.59,0,0,0,4.7-5.07V872.65a12.57,12.57,0,0,0-5.34-3.38,19.23,19.23,0,0,0-5.68-.89q-4.37,0-7.86,4.8t-3.48,16.56q0,12.1,3.16,17.09A9.92,9.92,0,0,0,913.38,911.81Z" fill="#fff"/><path d="M1007.05,936.73a41.06,41.06,0,0,1-16-3.12,36.7,36.7,0,0,1-13-9.07,42.94,42.94,0,0,1-8.67-14.69,57.65,57.65,0,0,1-3.16-19.76,51.82,51.82,0,0,1,3.57-19.76,43.67,43.67,0,0,1,9.56-14.68,40.77,40.77,0,0,1,13.85-9.08,44.4,44.4,0,0,1,16.45-3.11,33.16,33.16,0,0,1,13.13,2.49,37.45,37.45,0,0,1,10.53,6.76l-13,19.58a19.39,19.39,0,0,0-4.78-3.38,10.61,10.61,0,0,0-4.3-.89,14.24,14.24,0,0,0-12.15,6q-4.38,6-4.38,16.11t4.46,16.11q4.45,6,11.1,6a15.35,15.35,0,0,0,6.73-1.6,29.29,29.29,0,0,0,6.24-4.09L1034,926.4a33.68,33.68,0,0,1-13.37,8.1A45.83,45.83,0,0,1,1007.05,936.73Z" fill="#fff"/><path d="M1078,936.73a38.35,38.35,0,0,1-28-12.19,44.19,44.19,0,0,1-8.91-14.69,60.46,60.46,0,0,1,0-39.52,44.25,44.25,0,0,1,8.91-14.68,38.24,38.24,0,0,1,28-12.19,37.56,37.56,0,0,1,15,3.11,38.3,38.3,0,0,1,12.8,9.08,45.26,45.26,0,0,1,9,14.68,59.12,59.12,0,0,1,0,39.52,45.2,45.2,0,0,1-9,14.69,38.13,38.13,0,0,1-12.8,9.07A37.4,37.4,0,0,1,1078,936.73Zm0-24.57q6.32,0,9-6t2.68-16.11q0-10.14-2.68-16.11t-9-6q-6.32,0-9,6t-2.68,16.11q0,10.15,2.68,16.11T1078,912.16Z" fill="#fff"/><path d="M1146.74,834.56a15.33,15.33,0,0,1-11.18-4.28,16.09,16.09,0,0,1,0-22.07,16.77,16.77,0,0,1,22.36,0,16.09,16.09,0,0,1,0,22.07A15.32,15.32,0,0,1,1146.74,834.56Zm-13.94,100v-89h27.88v89Z" fill="#fff"/><path d="M1179.48,934.59v-89h22.68l1.95,10.68h.65a54.09,54.09,0,0,1,11.1-9,27.17,27.17,0,0,1,14.5-3.82q13.29,0,19.29,9.88t6,26.43v54.82h-27.87V883.68q0-8.53-2-11.39c-1.29-1.89-3.35-2.85-6.15-2.85a11.25,11.25,0,0,0-6.49,1.78,44.1,44.1,0,0,0-5.83,5v58.38Z" fill="#fff"/><polyline points="1553.3 156.14 1534.33 181.4 1616.51 215.3 1651.67 167.44" fill="#420479"/><polygon points="1398.84 394.74 1449.63 674.65 1669.81 492.81 1615.67 210.56 1398.84 394.74" fill="#420479"/><polygon points="1740.98 362.3 1656.7 347.02 1601.16 414 1687.95 428.79 1740.98 362.3" fill="#b3b3b3"/><polygon points="1398.84 394.74 1615.67 210.56 1669.81 487.67 1449.63 674.65 1398.84 394.74" fill="#420479"/><polygon points="373.81 518 454.74 625.53 584.51 612.7 509.58 499.95 373.81 518" fill="#7235d3"/><polygon points="373.81 518 454.74 625.53 404.65 750 319.12 641.72 373.81 518" fill="#5411b3"/><polygon points="584.51 612.7 538.19 740.64 404.65 750 454.74 625.53 584.51 612.7" fill="#420479"/><polygon points="438.56 147.77 509.58 224.23 407.02 250.47 332.65 171.77 438.56 147.77" fill="#828282"/><polygon points="332.65 171.77 302.51 275.02 376.74 350.51 407.02 250.47 332.65 171.77" fill="#5c5c5c"/><polygon points="407.02 250.47 509.58 224.23 479.44 332.37 376.74 350.51 407.02 250.47" fill="#b3b3b3"/><polygon points="1649.44 560.44 1663.12 601.75 1690.19 569.37 1676.79 529.47 1649.44 560.44" fill="#7235d3"/><polygon points="1676.79 529.47 1718.93 535.61 1731.49 575.51 1690.19 569.37 1676.79 529.47" fill="#420479"/><polygon points="1731.49 575.51 1690.19 569.37 1663.12 601.75 1706.07 608.86 1731.49 575.51" fill="#5411b3"/><polygon points="302.62 940.73 373.46 847.38 327.49 740.64 258.35 832.31 302.62 940.73" fill="#5c5c5c"/><polygon points="302.62 940.73 185.93 926.08 148.26 819.41 258.35 832.31 302.62 940.73" fill="#828282"/><polygon points="148.26 819.41 258.35 832.31 327.49 740.64 210.84 724.98 148.26 819.41" fill="#b3b3b3"/><path d="M.05,807.52c.32.32,36.37,20.1,36.37,20.1v42.9L0,849.8Z" fill="#5411b3"/><polygon points="0.05 807.52 36.42 827.62 72.78 807.52 36.47 786.17 0.05 807.52" fill="#7235d3"/><polyline points="72.78 807.52 72.73 849.38 36.42 870.52 36.42 827.62" fill="#420479"/><polyline points="88.88 862.78 84.42 796.36 139.81 759.24 144.7 825.98" fill="#5411b3"/><polyline points="149.44 893.37 88.88 862.78 144.7 825.98 203.86 855.98 149.44 893.37" fill="#420479"/><polyline points="139.81 759.24 199.95 788.74 203.86 855.98 144.7 825.98" fill="#7235d3"/><polygon points="182.16 644.79 244.95 590.09 325.61 617.44 260.86 673.26 182.16 644.79" fill="#7235d3"/><polygon points="182.16 644.79 197.23 726.56 277.05 755.3 260.86 673.26 182.16 644.79" fill="#5411b3"/><polygon points="325.61 617.44 340.61 699.77 277.05 755.3 260.86 673.26 325.61 617.44" fill="#420479"/><polygon points="446.68 729.27 450.84 793.9 507.88 822.39 504.03 756.89 446.68 729.27" fill="#828282"/><polygon points="446.68 729.27 499 693.06 555.72 720.68 504.03 756.89 446.68 729.27" fill="#b3b3b3"/><polygon points="504.03 756.89 555.72 720.68 562.28 786.39 507.88 822.39 504.03 756.89" fill="#5c5c5c"/><polygon points="396.84 331.26 406.05 384.56 446.79 350.51 437.58 297.21 396.84 331.26" fill="#5411b3"/><polygon points="437.58 297.21 487.26 315.63 495.35 367.54 446.79 350.51 437.58 297.21" fill="#7235d3"/><polygon points="495.35 367.54 455.16 401.86 406.05 384.56 446.79 350.51 495.35 367.54" fill="#420479"/><polygon points="1227.07 649.26 1278.14 644.23 1257.21 692.37 1205.72 695.72 1227.07 649.26" fill="#7235d3"/><polygon points="1257.21 692.37 1286.51 732.14 1235.44 738.84 1205.72 695.72 1257.21 692.37" fill="#5411b3"/><polygon points="1257.21 692.37 1286.51 732.14 1308.14 685.39 1278.14 644.23 1257.21 692.37" fill="#420479"/><polygon points="1533.77 639.63 1583.72 654.84 1595.58 705.21 1545.21 690.42 1533.77 639.63" fill="#7235d3"/><polygon points="1533.77 639.63 1571.72 603.77 1619.72 618.42 1583.72 654.84 1533.77 639.63" fill="#420479"/><polygon points="1583.72 654.84 1619.72 618.42 1632.98 669.07 1595.58 705.21 1583.72 654.84" fill="#5411b3"/><polygon points="1704.98 593.02 1761.91 566.23 1813.26 602.79 1756.61 629.44 1704.98 593.02" fill="#b3b3b3"/><polygon points="1756.61 629.44 1751.3 692.37 1698.28 654.98 1704.98 593.02 1756.61 629.44" fill="#828282"/><polygon points="1756.61 629.44 1813.26 602.79 1808.23 666.42 1751.3 692.37 1756.61 629.44" fill="#5c5c5c"/><polygon points="1824.35 291.77 1867.67 296.37 1884.63 335.09 1841.93 331.95 1824.35 291.77" fill="#5411b3"/><polygon points="1824.35 291.77 1849.46 256.61 1891.95 261 1867.67 296.37 1824.35 291.77" fill="#7235d3"/><polygon points="1867.67 296.37 1884.63 335.09 1910.16 300.35 1891.95 261 1867.67 296.37" fill="#420479"/><polygon points="1740.98 207.35 1780.19 239.58 1771.95 290.79 1731.63 257.3 1740.98 207.35" fill="#b3b3b3"/><polygon points="1740.98 207.35 1788.98 189.07 1828.19 222.42 1780.19 239.58 1740.98 207.35" fill="#828282"/><polygon points="1780.19 239.58 1828.19 222.42 1820.51 272.93 1771.95 290.79 1780.19 239.58" fill="#5c5c5c"/><path d="M276.94,564.88" fill="#5c5c5c"/><polygon points="229.5 471.12 171.73 556.51 276.94 564.88 336.04 477.81 229.5 471.12" fill="#828282"/><polygon points="276.94 564.88 295.63 607.28 325.61 617.44 326.84 624.24 364.97 538 336.04 477.81 276.94 564.88" fill="#b3b3b3"/><polygon points="171.73 556.51 276.94 564.88 295.63 607.28 244.95 590.09 203.99 625.78 171.73 556.51" fill="#5c5c5c"/><polygon points="657.1 28.58 659.82 97.44 602.26 133.44 599.75 63.75 657.1 28.58" fill="#7235d3"/><polygon points="602.26 133.44 638.54 152.56 683.61 113.49 692.12 117.4 692.12 113.49 659.82 97.44 602.26 133.44" fill="#5411b3"/><polygon points="659.82 97.44 657.1 28.58 716.75 60.19 716.75 63.75 688.71 84.05 692.12 113.49 659.82 97.44" fill="#420479"/><polygon points="528.7 247.4 642.84 287.37 642.84 213.35 699.49 181.26 692.12 117.4 683.61 113.49 528.7 247.4" fill="#b3b3b3"/><polygon points="568.61 449.16 528.7 247.4 642.84 287.37 642.84 475.02 568.61 449.16" fill="#828282"/><polygon points="688.71 84.05 788.51 128.93 699.49 181.26 688.71 84.05" fill="#5411b3"/><polygon points="688.71 84.05 798.98 3.77 889.39 43.91 859.67 87.91 788.51 128.93 688.71 84.05" fill="#7235d3"/><polygon points="859.67 87.91 889.39 43.91 918.28 0 939.63 42.28 859.67 87.91" fill="#828282"/><polygon points="918.28 0 939.63 42.28 955.86 33.91 1248.98 203.02 1152.7 12.56 918.28 0" fill="#b3b3b3"/><polygon points="1172.74 52.21 1290.84 31.12 1247.3 156.14 1227.02 159.58 1172.74 52.21" fill="#828282"/><polygon points="1227.02 159.58 1248.98 203.02 1267.12 213.35 1267.12 268.33 1333.54 256.61 1247.3 156.14 1227.02 159.58" fill="#5c5c5c"/><polygon points="1247.3 156.14 1290.84 31.12 1377.7 131.44 1333.54 256.61 1247.3 156.14" fill="#b3b3b3"/><polygon points="1267.12 268.33 1267.12 347.02 1398.84 394.74 1615.67 210.56 1369.95 122.49 1377.7 131.44 1333.54 256.61 1267.12 268.33" fill="#7235d3"/><polygon points="1267.12 347.02 1267.12 573.91 1228.46 595.88 1449.63 674.65 1398.84 394.74 1267.12 347.02" fill="#5411b3"/><polygon points="1571.02 333.07 1601.16 414 1656.7 347.02 1626 266.65 1571.02 333.07" fill="#828282"/><polygon points="1626 266.65 1710.42 281.16 1740.98 362.3 1656.7 347.02 1626 266.65" fill="#5c5c5c"/><polygon points="1601.16 414 1656.7 347.02 1740.98 362.3 1685.51 428.34 1601.16 414" fill="#b3b3b3"/><polygon points="1738.33 394.74 1714.05 481.93 1775.58 548.58 1800.7 460.67 1738.33 394.74" fill="#420479"/><polygon points="642.84 573.49 642.84 475.02 568.61 449.16 561.12 411.34 494.58 464.23 520.19 670.19 642.84 573.49" fill="#5411b3"/><polygon points="642.84 573.49 520.19 670.19 713.44 746.09 807.77 670.19 642.84 573.49" fill="#420479"/><polygon points="1649.44 416.93 1626 503.58 1714.05 481.93 1738.33 394.74 1649.44 416.93" fill="#7235d3"/><polygon points="1626 503.58 1663.12 544.95 1676.79 529.47 1718.93 535.61 1726.85 560.76 1775.58 548.58 1714.05 481.93 1626 503.58" fill="#5411b3"/><polygon points="1826.78 481.93 1809.44 507.46 1777.41 507.46 1794.89 481.93 1826.78 481.93" fill="#b3b3b3"/><polygon points="1777.41 507.46 1791.12 535.39 1820.84 535.39 1809.44 507.46 1777.41 507.46" fill="#828282"/><polygon points="1809.44 507.46 1820.84 535.39 1839.4 507.46 1826.78 481.93 1809.44 507.46" fill="#5c5c5c"/><polygon points="1512.28 62.79 1553.3 156.14 1651.67 167.44 1613.86 74.51 1512.28 62.79" fill="#7235d3"/><polygon points="1512.28 62.79 1453.67 143.86 1457.64 153.92 1534.33 181.4 1553.3 156.14 1512.28 62.79" fill="#5411b3"/><g clip-path="url(#a)"><polygon points="645.94 215.03 956.16 35.77 1266.38 215.03 1266.38 573.54 956.16 752.8 645.94 573.54 645.94 215.03" fill="#fff"/><g clip-path="url(#b)"><rect x="678.44" y="73.32" width="555.45" height="641.93" fill="url(#c)"/></g><g clip-path="url(#d)"><rect x="642.4" y="31.67" width="627.52" height="725.22" fill="url(#e)"/></g></g></svg>